<?xml version="1.0" encoding="utf-8"?>
<!-- Generator: Adobe Illustrator 19.1.0, SVG Export Plug-In . SVG Version: 6.00 Build 0)  -->
<svg version="1.1" id="Layer_1" xmlns="http://www.w3.org/2000/svg" xmlns:xlink="http://www.w3.org/1999/xlink" x="0px" y="0px"
	 viewBox="-230 322 150 150" style="enable-background:new -230 322 150 150;" xml:space="preserve">
<style type="text/css">
	.st0{fill:none;stroke:#F05B22;stroke-width:1.75;stroke-linejoin:round;stroke-miterlimit:10;}
</style>
<g>
	<path class="st0" d="M-163.7,435.9V433h-9.9v2.9c0,0-6.3,0.8-6.3,7.7c0,6.8,9,6.7,11.3,6.7c2.3,0,11.3,0.1,11.3-6.7
		C-157.4,436.7-163.7,435.9-163.7,435.9z"/>
	<path class="st0" d="M-168.1,354v-4.7h-15.9v4.7c0,0-11.7,1.3-11.7,12.4c0,11,16,10.8,19.7,10.8c3.7,0,19.7,0.2,19.7-10.8
		C-156.4,355.3-168.1,354-168.1,354z"/>
	<path class="st0" d="M-148.7,455.1h-39.3c-1.5,0-2.8-1.3-2.8-2.8v-22.3c0-1.5,1.3-2.8,2.8-2.8h39.3c1.5,0,2.8,1.3,2.8,2.8v22.3
		C-145.9,453.8-147.2,455.1-148.7,455.1z"/>
	<path class="st0" d="M-148.8,384.5h-54.6c-1.5,0-2.7-1.2-2.7-2.7V343c0-1.5,1.2-2.7,2.7-2.7h54.6c1.5,0,2.7,1.2,2.7,2.7v38.8
		C-146.1,383.3-147.3,384.5-148.8,384.5z"/>
	<path class="st0" d="M-140.3,391.9h-71.6c-1.6,0-2.8-1.3-2.8-2.8v-53.2c0-1.6,1.3-2.8,2.8-2.8h71.6c1.6,0,2.8,1.3,2.8,2.8v53.2
		C-137.5,390.6-138.7,391.9-140.3,391.9z"/>
	<path class="st0" d="M-135.6,461.7h-60.7c-1.5,0-2.7-1.2-2.7-2.7v-35.7c0-1.5,1.2-2.7,2.7-2.7h60.7c1.5,0,2.7,1.2,2.7,2.7v35.7
		C-132.9,460.4-134.1,461.7-135.6,461.7z"/>
	<circle class="st0" cx="-139" cy="442.7" r="2.1"/>
	<path class="st0" d="M-117.3,406.6V378c0-1.5,1.2-2.7,2.7-2.7h15.8c1.5,0,2.7,1.2,2.7,2.7v28.6c0,1.5-1.2,2.7-2.7,2.7h-15.8
		C-116.1,409.2-117.3,408.1-117.3,406.6z"/>
	<path class="st0" d="M-122.3,416.3v-44.4c0-1.5,1.3-2.8,2.8-2.8H-94c1.5,0,2.8,1.3,2.8,2.8v44.4c0,1.5-1.3,2.8-2.8,2.8h-25.5
		C-121.1,419.1-122.3,417.8-122.3,416.3z"/>
	<circle class="st0" cx="-106.8" cy="414.5" r="1.6"/>
	<path class="st0" d="M-102.2,396.9c0-3-2.5-4.3-2.5-4.3v-5.8h-4.1v5.8c0,0-2.5,1.3-2.5,4.3c0,2.9,1.5,4.4,4.5,4.5v0
		c0,0,0.1,0,0.1,0c0,0,0.1,0,0.1,0v0C-103.7,401.3-102.2,399.8-102.2,396.9z"/>
	<polyline class="st0" points="-182.4,391.9 -182.4,401.4 -191.6,408.4 -176.1,408.4 -176.1,408.4 -160.6,408.4 -169.8,401.4 
		-169.8,391.9 	"/>
</g>
</svg>
