<svg xmlns="http://www.w3.org/2000/svg" viewBox="0 0 110 128" aria-hidden="true" focusable="false">
    <path fill="#4C6BC5" d="M52 79V49l1 1 1 1h52c1 0 2-2 1-3L55 0c-1-1-3 0-3 2v25H4c-2 0-4 2-4 5v93c0 2 1 3 3 3h104c1 0 3-1 3-3V79c0-15-11-27-26-28h-5c-15 1-27 13-27 28"></path>
    <path fill="#6E90D5" d="M81 51h-5 5zm3 0h1-4 3z"></path>
    <path fill="#3972E3" d="M28 87c7-4 24-8 24-8V49l1 1 2-11c1-5-3-12-3-12H4c-2 0-4 2-4 5v55c11 1 25 2 28 0z"></path>
    <path fill="#30476C" d="M52 79l29-4 21 4h8c0-15-11-27-26-28h-5c-15 1-27 13-27 28z"></path>
    <path fill="#4C6BC5" d="M102 79l-21-4-29 4s-5 31-2 39l1 10h56c1 0 3-1 3-3V79h-8zM55 39l-2 11 1 1h27-2 5-3 25c1 0 2-2 1-3L55 0c-1-1-3 0-3 2v25s4 7 3 12z"></path>
    <path fill="#30476C" d="M3 128h48l-1-10c-3-8 2-39 2-39s-17 4-24 8c-3 2-17 1-28 0v38c0 2 1 3 3 3z"></path>
</svg>